<svg xmlns="http://www.w3.org/2000/svg" width="20" height="20" viewBox="209 19 20 20" fill="none"><g transform="matrix(1 0 0 1 0 0)" opacity="1"><path fill-rule="evenodd" clip-rule="evenodd" d="M220.046 22.8468C219.472 22.8437 218.903 22.9646 218.378 23.2013C218.121 23.3169 217.878 23.4589 217.652 23.6244C217.415 23.7981 217.196 23.9977 217 24.2202C216.804 23.9977 216.586 23.7981 216.348 23.6244C216.122 23.4589 215.879 23.3169 215.623 23.2013C215.097 22.9646 214.529 22.8437 213.954 22.8468C213.468 22.8377 212.986 22.9269 212.534 23.1091C212.083 23.2914 211.672 23.5631 211.325 23.9083C210.979 24.2536 210.703 24.6655 210.516 25.1199C210.328 25.5743 210.231 26.0622 210.231 26.555C210.231 29.5581 213.109 31.9455 215.497 33.9263C215.738 34.1256 215.973 34.3208 216.2 34.5121C216.661 34.9007 217.341 34.9026 217.803 34.5153C218.012 34.341 218.227 34.1631 218.446 33.9817C220.847 31.9966 223.769 29.5806 223.769 26.555C223.77 26.0622 223.673 25.5743 223.485 25.1199C223.297 24.6655 223.022 24.2536 222.675 23.9083C222.328 23.5631 221.917 23.2914 221.466 23.1091C221.015 22.9269 220.532 22.8377 220.046 22.8468Z" stroke="#FCFCFC" stroke-width="1.63857"></path></g></svg>