<svg xmlns="http://www.w3.org/2000/svg" width="28" height="28" viewBox="85 148.479 28 28" fill="none"><g transform="matrix(1 0 0 1 0 0)" opacity="1"><path d="M97.6481 166.726C94.6969 166.97 92.5093 167.859 92.5093 168.918C92.5093 170.165 95.5415 171.175 99.282 171.175C103.023 171.175 106.055 170.165 106.055 168.918C106.055 167.898 104.027 167.036 101.243 166.756" stroke="#FCFCFC" stroke-width="0.811321"></path></g><g transform="matrix(1 0 0 1 0 0)" opacity="1"><path fill-rule="evenodd" clip-rule="evenodd" d="M97.7501 167.06C98.5569 168.058 100.038 168.058 100.845 167.06C102.511 164.998 104.926 161.653 104.926 159.585C104.926 156.427 102.406 153.867 99.2977 153.867C96.1893 153.867 93.6694 156.427 93.6694 159.585C93.6694 161.653 96.084 164.998 97.7501 167.06Z" stroke="#FCFCFC" stroke-width="1.62264"></path></g><g transform="matrix(1 0 0 1 0 0)" opacity="1"><path fill-rule="evenodd" clip-rule="evenodd" d="M99.2965 161.606C100.395 161.606 101.286 160.701 101.286 159.584C101.286 158.468 100.395 157.563 99.2965 157.563C98.1975 157.563 97.3066 158.468 97.3066 159.584C97.3066 160.701 98.1975 161.606 99.2965 161.606Z" fill="#FCFCFC"></path></g></svg>