<svg xmlns="http://www.w3.org/2000/svg" width="28" height="28" viewBox="85 388.479 28 28" fill="none"><g transform="matrix(1 0 0 1 0 0)" opacity="1"><path d="M106.875 402.671C106.875 397.867 103.148 394.604 99 394.604C94.8962 394.604 91.125 397.797 91.125 402.724C90.6 403.021 90.25 403.581 90.25 404.229V405.979C90.25 406.941 91.0375 407.729 92 407.729H92.875V402.391C92.875 399.005 95.6137 396.266 99 396.266C102.386 396.266 105.125 399.005 105.125 402.391V408.604H98.125V410.354H105.125C106.087 410.354 106.875 409.566 106.875 408.604V407.536C107.391 407.265 107.75 406.731 107.75 406.101V404.089C107.75 403.476 107.391 402.942 106.875 402.671Z" fill="#FCFCFC"></path></g><g transform="matrix(1 0 0 1 0 0)" opacity="1"><path d="M96.375 404.229C96.8582 404.229 97.25 403.837 97.25 403.354C97.25 402.87 96.8582 402.479 96.375 402.479C95.8918 402.479 95.5 402.87 95.5 403.354C95.5 403.837 95.8918 404.229 96.375 404.229Z" fill="#FCFCFC"></path></g><g transform="matrix(1 0 0 1 0 0)" opacity="1"><path d="M101.625 404.229C102.108 404.229 102.5 403.837 102.5 403.354C102.5 402.87 102.108 402.479 101.625 402.479C101.142 402.479 100.75 402.87 100.75 403.354C100.75 403.837 101.142 404.229 101.625 404.229Z" fill="#FCFCFC"></path></g><g transform="matrix(1 0 0 1 0 0)" opacity="1"><path d="M97.5674 397.874C97.1192 399.773 95.8563 401.356 94.167 402.236C94.2763 400.02 95.8043 398.448 97.5674 397.874ZM99.0439 397.634C101.28 397.634 103.164 399.145 103.737 401.198C101.441 400.998 99.4828 399.625 98.4541 397.674C98.6508 397.648 98.8478 397.634 99.0439 397.634Z" fill="#FCFCFC" stroke="#FCFCFC" stroke-width="0.811321"></path></g></svg>